Jump_normalized_Motion_pl12
version=1
nRows=14
nColumns=43
inDegrees=yes
endheader
time		pelvis_tilt		pelvis_list		pelvis_rotation		pelvis_tx		pelvis_ty		pelvis_tz		hip_flexion_r		hip_adduction_r		hip_rotation_r		knee_angle_r		ankle_angle_r		subtalar_angle_r		mtp_angle_r		hip_flexion_l		hip_adduction_l		hip_rotation_l		knee_angle_l		ankle_angle_l		subtalar_angle_l		mtp_angle_l		lumbar_extension		lumbar_bending		lumbar_rotation		neck_flexion		neck_lateral_bending		neck_rotation		arm_flex_r		arm_add_r		arm_rot_r		elbow_flex_r		pro_sup_r		wrist_flex_r		wrist_dev_r		hand_finger_flex_r		arm_flex_l		arm_add_l		arm_rot_l		elbow_flex_l		pro_sup_l		wrist_flex_l		wrist_dev_l		hand_finger_flex_l		
0.313333		3.862871		-16.992189		88.343115		0.040940		1.746805		1.859485		85.241443		2.577769		-4.267838		-138.332866		26.058638		1.532224		24.734520		87.109544		-10.150897		1.858577		-141.815308		21.420393		2.168477		23.290750		-50.484588		0.687998		4.256309		39.146656		-2.249739		2.980704		71.641127		-18.784766		10.337238		77.070532		105.062919		-7.692241		0.696555		23.906953		70.573009		-26.210165		11.155037		80.526680		89.804667		-3.283844		1.326037		28.047632		
0.317146		3.765773		-17.390724		88.362861		0.040970		1.749121		1.856477		85.032975		2.578352		-4.118867		-137.964929		26.041684		1.353265		24.906344		86.849931		-10.159059		1.679718		-141.399783		21.348284		2.158302		23.353652		-49.930260		0.643523		4.160980		39.019962		-2.210482		2.981029		72.654408		-18.606589		10.401714		77.197128		104.914670		-7.541728		0.704579		23.889329		71.931673		-26.191185		11.801236		80.636459		89.487220		-3.320011		1.265814		27.801445		
0.320960		3.646555		-17.693932		88.344607		0.041198		1.751759		1.853331		84.692466		2.614605		-3.988983		-137.571604		26.020198		1.171534		25.091686		86.440314		-10.224987		1.473716		-140.956792		21.286238		2.160260		23.425258		-49.493731		0.527289		4.087502		38.865596		-2.179135		2.945190		73.689636		-18.542106		10.533079		77.372750		104.889594		-7.401253		0.653039		23.884424		73.470838		-26.240805		12.677708		80.633497		89.216956		-3.243995		1.167919		27.533282		
0.324773		3.454517		-17.795731		88.274710		0.041660		1.754999		1.849992		84.102576		2.691511		-3.808700		-137.143582		25.956345		1.114526		25.403884		85.729100		-10.363621		1.188544		-140.460631		21.265107		2.211710		23.558454		-49.301377		0.282966		4.055742		38.794197		-2.024143		2.777484		74.713908		-18.500181		10.526153		77.555430		104.914951		-7.403227		0.492844		23.867880		75.181904		-26.129068		13.650731		80.431481		88.681421		-3.259617		0.882929		27.101242		
0.328586		3.435080		-18.170376		88.289265		0.041876		1.757642		1.846765		83.812999		2.739722		-3.798495		-136.686067		25.882648		1.213594		25.491631		85.412374		-10.456920		1.103899		-140.009340		21.240261		2.259498		23.602262		-48.777341		0.298618		4.056526		38.668932		-2.154396		2.815008		75.803366		-18.373241		10.722997		77.625564		105.007861		-7.360808		0.443052		23.866353		76.584825		-25.951078		14.154407		80.359270		88.673876		-3.175082		0.925278		27.018471		
0.332399		3.404816		-18.306970		88.296111		0.042079		1.760805		1.843303		83.227271		2.776747		-3.766103		-136.204436		25.796634		1.463713		25.624929		84.781949		-10.543878		1.010446		-139.530587		21.205878		2.367679		23.675987		-48.528967		0.260721		4.088869		38.443841		-2.163640		2.770131		76.933515		-18.459525		11.032661		77.790153		105.184525		-7.374391		0.314362		23.868068		78.233239		-25.853607		15.001464		80.194844		88.637720		-3.022941		0.955711		26.982084		
0.336212		3.391364		-18.579697		88.313462		0.042067		1.763792		1.839853		82.788304		2.800393		-3.727356		-135.698586		25.740379		1.628649		25.694794		84.313907		-10.583444		0.917438		-139.043767		21.180824		2.455142		23.724329		-48.123022		0.287098		4.099814		38.316078		-2.206446		2.767835		78.071164		-18.381859		11.263116		77.821963		105.306399		-7.392673		0.291217		23.848088		79.667433		-25.595934		15.499475		80.052500		88.622059		-2.988884		0.987365		26.972265		
0.340025		3.383881		-18.858317		88.330984		0.041962		1.766706		1.836385		82.353811		2.820178		-3.664866		-135.188925		25.709453		1.766308		25.759534		83.851197		-10.596283		0.826946		-138.556538		21.153368		2.540574		23.772583		-47.704483		0.323475		4.110923		38.197416		-2.242819		2.770058		79.236125		-18.303673		11.511352		77.818676		105.426575		-7.401006		0.305413		23.825843		81.097607		-25.337689		15.994230		79.903601		88.611550		-2.969203		1.021890		26.965870		
0.343838		3.384928		-19.135082		88.379389		0.041800		1.769558		1.832884		81.928113		2.820769		-3.586102		-134.703441		25.711733		1.840513		25.807959		83.416068		-10.593402		0.748322		-138.076629		21.110653		2.625005		23.814203		-47.283499		0.385154		4.097560		38.021390		-2.309291		2.803449		80.484656		-18.331264		11.913315		77.779366		105.567264		-7.312114		0.405763		23.826511		82.600970		-25.180750		16.631203		79.756807		88.676650		-2.904200		1.093692		26.954406		
0.347652		3.389085		-19.406613		88.424126		0.041642		1.772482		1.829203		81.468928		2.812901		-3.519658		-134.200410		25.742745		1.882845		25.857359		82.945128		-10.583121		0.675130		-137.578219		21.073334		2.708579		23.857918		-46.870130		0.446126		4.084523		37.864880		-2.339219		2.811904		81.679225		-18.331434		12.263667		77.778303		105.659138		-7.230447		0.526237		23.829968		84.043589		-25.041574		17.227257		79.664375		88.709420		-2.875334		1.107626		26.905114		
0.351465		3.403459		-19.678977		88.471969		0.041516		1.775404		1.825418		81.006110		2.803692		-3.479795		-133.695980		25.776553		1.914998		25.908846		82.466932		-10.583777		0.615189		-137.076888		21.052375		2.794662		23.904863		-46.451299		0.504123		4.068851		37.719719		-2.374543		2.810874		82.873137		-18.340706		12.613139		77.775980		105.703620		-7.136941		0.658115		23.844127		85.478439		-24.923076		17.848675		79.573289		88.743193		-2.878936		1.092882		26.808557		
0.355278		3.433069		-20.047852		88.507329		0.041461		1.778227		1.821368		80.618495		2.806184		-3.481875		-133.169621		25.765495		1.951364		25.933803		82.060396		-10.611518		0.570471		-136.566808		21.035431		2.858019		23.931034		-45.918156		0.573265		4.061103		37.511828		-2.400487		2.808825		83.856069		-18.249010		12.765428		77.931313		105.708850		-7.107767		0.688781		23.841532		86.618954		-24.752634		18.119175		79.677964		88.760679		-2.915238		1.047353		26.733861		
0.359091		3.452415		-20.215599		88.573095		0.041324		1.781345		1.817427		80.025848		2.784380		-3.447584		-132.652858		25.787262		2.018976		26.011194		81.452056		-10.610399		0.541462		-136.057646		21.060441		2.987894		24.001557		-45.603913		0.633064		4.075125		37.416619		-2.435217		2.781981		85.161786		-18.380714		13.297798		77.823768		105.738119		-7.044272		0.858296		23.827884		88.244777		-24.693898		19.049173		79.437082		88.863391		-3.042174		1.034296		26.539768		
0.362904		3.473067		-20.553006		88.610398		0.041197		1.784220		1.813379		79.606563		2.793495		-3.397558		-132.122278		25.784750		2.047374		26.045940		81.024715		-10.621538		0.501696		-135.538710		21.072088		3.072875		24.040228		-45.085655		0.698106		4.086179		37.278548		-2.493724		2.800100		86.281760		-18.344956		13.625758		77.772388		105.827094		-7.047000		0.953905		23.777130		89.536640		-24.487367		19.494090		79.341592		88.963862		-3.171484		1.060784		26.432572		
